<?xml version="1.0" standalone="no"?>
<!DOCTYPE svg PUBLIC "-//W3C//DTD SVG 20010904//EN"
 "http://www.w3.org/TR/2001/REC-SVG-20010904/DTD/svg10.dtd">
<svg version="1.0" xmlns="http://www.w3.org/2000/svg"
 width="1024.000000pt" height="1024.000000pt" viewBox="0 0 1024.000000 1024.000000"
 preserveAspectRatio="xMidYMid meet">
<metadata>
Created by potrace 1.11, written by Peter Selinger 2001-2013
</metadata>
<g transform="translate(0.000000,1024.000000) scale(0.100000,-0.100000)"
fill="#000000" stroke="none">
<path d="M0 5120 l0 -5120 5120 0 5120 0 0 5120 0 5120 -5120 0 -5120 0 0
-5120z m3180 1724 c0 -57 3 -75 13 -71 6 3 49 22 93 42 124 54 233 75 399 75
153 0 256 -18 379 -64 279 -105 508 -362 562 -630 22 -111 24 -254 22 -1546
l-3 -1395 -22 -47 c-26 -56 -63 -94 -118 -119 -33 -15 -65 -19 -178 -19 -119
0 -143 3 -182 21 -57 27 -93 63 -119 119 -21 45 -21 53 -24 1011 l-2 966 -93
-23 c-208 -53 -475 -21 -677 81 l-50 25 0 -80 0 -80 -90 0 c-349 0 -774 120
-1035 292 l-65 42 0 568 0 567 33 24 c237 176 690 309 1075 316 l82 1 0 -76z
m4287 51 c253 -35 528 -126 708 -233 49 -30 98 -61 108 -70 16 -14 17 -55 17
-581 l0 -567 -62 -41 c-264 -172 -685 -293 -1024 -293 l-94 0 0 80 c0 72 -9
97 -24 71 -10 -16 -161 -71 -262 -96 -138 -35 -313 -35 -443 -1 -50 13 -93 21
-96 18 -3 -3 -5 -438 -5 -967 0 -944 0 -963 -20 -1008 -24 -54 -85 -109 -139
-125 -21 -7 -96 -12 -167 -12 -104 0 -137 4 -169 19 -55 25 -92 63 -118 119
l-22 47 -3 1395 c-2 1303 0 1434 23 1550 25 128 105 275 209 387 140 150 318
247 534 292 68 14 315 14 384 0 88 -18 173 -46 237 -78 33 -17 65 -31 71 -31
6 0 10 31 10 77 l0 76 118 -6 c66 -4 168 -14 229 -22z m2285 -2932 c-6 -2 -9
-10 -6 -15 4 -7 2 -8 -5 -4 -13 9 -5 26 12 25 9 0 8 -2 -1 -6z m-122 -97 c0
-3 -4 -8 -10 -11 -5 -3 -10 -1 -10 4 0 6 5 11 10 11 6 0 10 -2 10 -4z m-38
-63 c-6 -2 -9 -10 -6 -15 4 -7 2 -8 -5 -4 -13 9 -5 26 12 25 9 0 8 -2 -1 -6z
m83 -2 c3 -5 2 -12 -3 -15 -5 -3 -9 1 -9 9 0 17 3 19 12 6z m-205 -95 c0 -3
-4 -8 -10 -11 -5 -3 -10 -1 -10 4 0 6 5 11 10 11 6 0 10 -2 10 -4z m-38 -63
c-6 -2 -9 -10 -6 -15 4 -7 2 -8 -5 -4 -13 9 -5 26 12 25 9 0 8 -2 -1 -6z m83
-2 c3 -5 2 -12 -3 -15 -5 -3 -9 1 -9 9 0 17 3 19 12 6z m42 -76 c0 -8 -4 -12
-9 -9 -5 3 -6 10 -3 15 9 13 12 11 12 -6z m-247 -19 c0 -3 -4 -8 -10 -11 -5
-3 -10 -1 -10 4 0 6 5 11 10 11 6 0 10 -2 10 -4z m-38 -63 c-6 -2 -9 -10 -6
-15 4 -7 2 -8 -5 -4 -13 9 -5 26 12 25 9 0 8 -2 -1 -6z m83 -2 c3 -5 2 -12 -3
-15 -5 -3 -9 1 -9 9 0 17 3 19 12 6z m160 0 c3 -5 2 -12 -3 -15 -5 -3 -9 1 -9
9 0 17 3 19 12 6z m-118 -76 c0 -8 -4 -12 -9 -9 -5 3 -6 10 -3 15 9 13 12 11
12 -6z m117 -3 c3 -5 -1 -9 -9 -9 -8 0 -12 4 -9 9 3 4 7 8 9 8 2 0 6 -4 9 -8z
m-364 -16 c0 -3 -4 -8 -10 -11 -5 -3 -10 -1 -10 4 0 6 5 11 10 11 6 0 10 -2
10 -4z m-38 -63 c-6 -2 -9 -10 -6 -15 4 -7 2 -8 -5 -4 -13 9 -5 26 12 25 9 0
8 -2 -1 -6z m83 -2 c3 -5 2 -12 -3 -15 -5 -3 -9 1 -9 9 0 17 3 19 12 6z m160
0 c3 -5 2 -12 -3 -15 -5 -3 -9 1 -9 9 0 17 3 19 12 6z m170 -11 c3 -6 -1 -7
-9 -4 -18 7 -21 14 -7 14 6 0 13 -4 16 -10z m26 -9 c-6 -10 -8 -21 -5 -23 2
-3 -3 -11 -13 -19 -11 -9 -14 -10 -9 -1 4 6 3 12 -3 12 -5 0 0 11 12 25 26 30
31 31 18 6z m-48 -37 c3 -4 -1 -13 -9 -21 -8 -8 -11 -19 -8 -25 4 -7 2 -8 -4
-4 -8 5 -9 13 -2 25 5 10 6 21 3 25 -3 3 -2 6 4 6 5 0 12 -3 16 -6z m-266 -19
c0 -8 -4 -12 -9 -9 -5 3 -6 10 -3 15 9 13 12 11 12 -6z m133 -10 c0 -2 -9 -3
-19 -2 -11 0 -18 5 -15 9 4 6 34 0 34 -7z m-380 -9 c0 -3 -4 -8 -10 -11 -5 -3
-10 -1 -10 4 0 6 5 11 10 11 6 0 10 -2 10 -4z m419 -10 c9 -11 9 -16 -1 -22
-7 -4 -10 -4 -6 1 4 4 3 14 -3 22 -6 7 -9 13 -6 13 2 0 10 -6 16 -14z m90 -19
c12 4 13 3 3 -5 -8 -5 -13 -12 -13 -16 4 -27 -1 -46 -9 -41 -6 4 -8 11 -5 16
4 5 -4 9 -17 9 -13 0 -30 5 -38 10 -10 6 -1 8 30 5 l45 -4 -35 13 c-29 11 -31
14 -15 18 11 2 24 1 29 -3 5 -4 16 -5 25 -2z m-106 -32 c-7 -21 -12 -19 -10 4
0 11 5 18 9 15 4 -3 5 -11 1 -19z m-441 -2 c-6 -2 -9 -10 -6 -15 4 -7 2 -8 -5
-4 -13 9 -5 26 12 25 9 0 8 -2 -1 -6z m83 -2 c3 -5 2 -12 -3 -15 -5 -3 -9 1
-9 9 0 17 3 19 12 6z m160 0 c3 -5 2 -12 -3 -15 -5 -3 -9 1 -9 9 0 17 3 19 12
6z m170 -11 c3 -6 -1 -7 -9 -4 -18 7 -21 14 -7 14 6 0 13 -4 16 -10z m101 -19
c9 -11 8 -18 -2 -29 -8 -7 -11 -18 -8 -24 5 -7 2 -8 -6 -3 -10 6 -12 4 -7 -9
5 -11 3 -15 -4 -10 -7 4 -10 1 -7 -7 6 -17 -98 -223 -174 -349 -12 -19 -30
-51 -41 -70 -11 -19 -30 -49 -43 -67 -13 -17 -24 -34 -24 -38 0 -16 -54 -84
-63 -78 -6 3 -7 1 -3 -6 9 -14 -28 -63 -39 -53 -5 4 -5 2 -2 -4 7 -13 -90
-150 -104 -147 -5 2 -8 0 -8 -5 4 -22 -3 -34 -15 -29 -9 4 -13 1 -10 -7 6 -16
-103 -152 -119 -148 -6 2 -9 0 -5 -4 12 -11 -53 -86 -69 -80 -8 3 -11 1 -8 -4
9 -14 -45 -81 -59 -73 -6 3 -8 2 -3 -2 9 -11 -33 -56 -45 -49 -5 3 -7 0 -6 -8
2 -7 -3 -12 -10 -10 -8 1 -11 -2 -8 -6 3 -5 -9 -25 -27 -43 -17 -19 -31 -37
-29 -41 1 -5 -3 -8 -10 -8 -6 0 -28 -17 -49 -38 -141 -140 -237 -221 -260
-217 -11 2 -17 0 -14 -6 4 -5 12 -7 18 -3 7 3 -3 -8 -22 -25 -19 -17 -38 -28
-43 -25 -5 3 -7 2 -6 -3 2 -4 0 -8 -4 -8 -3 0 -16 -12 -28 -27 -12 -16 -28
-28 -36 -28 -8 0 -14 -4 -14 -8 0 -12 -240 -185 -256 -185 -7 0 -11 -3 -9 -7
3 -4 -12 -16 -33 -26 -20 -10 -43 -25 -50 -31 -13 -12 -28 -17 -45 -14 -4 0
-6 -4 -5 -9 2 -6 -18 -23 -44 -38 -25 -15 -67 -40 -93 -55 -39 -24 -49 -27
-63 -15 -15 11 -16 11 -4 -3 10 -14 10 -18 -4 -23 -9 -3 -21 -3 -26 1 -7 3 -8
1 -4 -5 3 -6 -3 -16 -14 -22 -11 -6 -20 -7 -20 -3 0 4 -4 3 -8 -3 -4 -6 -30
-23 -58 -37 -40 -20 -54 -23 -63 -14 -10 9 -12 9 -9 -1 2 -8 -8 -21 -22 -30
-23 -16 -24 -16 -17 1 4 11 3 16 -3 12 -6 -3 -10 -14 -11 -23 0 -11 -3 -12 -6
-4 -2 6 -14 12 -24 12 -11 0 -18 4 -15 8 2 4 1 14 -3 21 -6 9 -11 10 -15 2 -4
-6 -2 -11 4 -11 6 0 8 -4 5 -10 -3 -5 -14 -10 -23 -10 -15 0 -15 2 -2 10 13 9
13 10 0 10 -9 0 -11 3 -5 8 6 4 17 16 25 26 14 18 13 19 -5 12 -14 -5 -17 -4
-9 4 13 13 57 22 49 10 -3 -4 0 -10 6 -12 8 -3 5 -10 -6 -22 -12 -11 -14 -21
-8 -27 11 -11 28 33 24 63 -1 10 3 18 8 18 6 0 10 -5 9 -11 -2 -6 4 -14 12
-16 12 -4 12 -3 1 5 -8 6 -10 12 -3 16 6 4 15 -2 21 -11 6 -10 11 -13 11 -6 0
6 -7 18 -15 27 -17 17 -20 30 -5 21 6 -3 10 -4 10 0 0 3 -10 9 -22 14 l-22 8
22 5 c12 4 22 2 22 -3 0 -5 11 -7 24 -3 16 4 25 1 29 -10 4 -9 2 -16 -3 -16
-6 0 -10 5 -10 11 0 6 -5 9 -12 7 -14 -5 -19 -36 -7 -44 5 -3 9 -2 8 3 -4 22
3 24 26 9 15 -10 25 -12 25 -6 0 6 4 8 10 5 5 -3 7 0 4 8 -3 8 -1 18 5 22 18
11 12 22 -14 27 -13 3 -22 2 -20 -3 3 -4 -4 -5 -16 -2 -16 4 -17 8 -7 14 10 7
10 9 -2 9 -9 0 -11 3 -5 8 6 4 17 16 25 26 14 18 13 19 -5 12 -14 -5 -17 -4
-9 4 13 13 57 22 49 10 -3 -4 0 -10 6 -12 8 -3 5 -10 -6 -22 -12 -11 -14 -21
-8 -27 11 -11 28 33 24 64 -3 21 36 18 50 -4 5 -9 9 -9 9 -2 0 6 -7 18 -15 27
-17 17 -20 30 -5 21 6 -3 10 -4 10 0 0 3 -10 9 -22 14 l-22 8 22 5 c12 4 22 2
22 -3 0 -5 11 -7 24 -3 16 4 25 1 29 -10 4 -9 2 -16 -3 -16 -6 0 -10 5 -10 11
0 6 -5 9 -12 7 -14 -5 -19 -36 -7 -44 5 -3 9 -2 8 3 -4 22 3 24 26 9 15 -10
25 -12 25 -6 0 6 4 8 10 5 5 -3 7 0 4 8 -3 8 -1 18 5 22 18 11 12 22 -14 27
-13 3 -22 2 -20 -3 3 -4 -4 -5 -16 -2 -16 4 -17 8 -7 14 10 7 10 9 -2 9 -9 0
-11 3 -5 8 6 4 17 16 25 26 14 18 13 19 -5 12 -14 -5 -17 -4 -9 4 13 13 57 22
49 10 -3 -4 0 -10 6 -12 8 -3 5 -10 -6 -22 -12 -11 -14 -21 -8 -27 11 -11 28
33 24 64 -3 21 36 18 50 -4 5 -9 9 -9 9 -2 0 6 -7 18 -15 27 -17 17 -20 30 -5
21 6 -3 10 -4 10 0 0 3 -10 9 -22 14 l-22 8 22 5 c12 4 22 2 22 -3 0 -5 11 -7
24 -3 16 4 25 1 29 -10 4 -9 2 -16 -3 -16 -6 0 -10 5 -10 11 0 6 -5 9 -12 7
-14 -5 -19 -36 -7 -44 5 -3 9 -2 8 3 -4 22 3 24 26 9 15 -10 25 -12 25 -6 0 6
4 8 10 5 5 -3 7 0 4 8 -3 8 -1 18 5 22 18 11 12 22 -14 27 -13 3 -22 2 -20 -3
3 -4 -4 -5 -16 -2 -16 4 -17 8 -7 14 10 7 10 9 -2 9 -9 0 -11 3 -5 8 6 4 17
16 25 26 14 18 13 19 -5 12 -14 -5 -17 -4 -9 4 13 13 57 22 49 10 -3 -4 0 -10
6 -12 8 -3 5 -10 -6 -22 -12 -11 -14 -21 -8 -27 11 -11 28 33 24 64 -3 21 36
18 50 -4 5 -9 9 -9 9 -2 0 6 -7 18 -15 27 -17 17 -20 30 -5 21 6 -3 10 -4 10
0 0 3 -10 9 -22 14 l-22 8 22 5 c12 4 22 2 22 -3 0 -5 11 -7 24 -3 16 4 25 1
29 -10 4 -9 2 -16 -3 -16 -6 0 -10 5 -10 11 0 6 -5 9 -12 7 -14 -5 -19 -36 -7
-44 5 -3 9 -2 8 3 -4 22 3 24 26 9 15 -10 25 -12 25 -6 0 6 4 8 10 5 5 -3 7 0
4 8 -3 8 -1 18 5 22 18 11 12 22 -14 27 -13 3 -22 2 -20 -3 3 -4 -4 -5 -16 -2
-16 4 -17 8 -7 14 10 7 10 9 -2 9 -9 0 -11 3 -5 8 6 4 17 16 25 26 14 18 13
19 -5 12 -14 -5 -17 -4 -9 4 13 13 57 22 49 10 -3 -4 0 -10 6 -12 8 -3 5 -10
-6 -22 -12 -11 -14 -21 -8 -27 11 -11 28 33 24 64 -3 21 36 18 50 -4 5 -9 9
-9 9 -2 0 6 -7 18 -15 27 -17 17 -20 30 -5 21 6 -3 10 -4 10 0 0 3 -10 9 -22
14 l-22 8 22 5 c12 4 22 2 22 -3 0 -5 11 -7 24 -3 16 4 25 1 29 -10 4 -9 2
-16 -3 -16 -6 0 -10 5 -10 11 0 6 -5 9 -12 7 -14 -5 -19 -36 -7 -44 5 -3 9 -2
8 3 -4 22 3 24 26 9 15 -10 25 -12 25 -6 0 6 4 8 10 5 5 -3 7 0 4 8 -3 8 -1
18 5 22 18 11 12 22 -14 27 -13 3 -22 2 -20 -3 3 -4 -4 -5 -16 -2 -16 4 -17 8
-7 14 10 7 10 9 -2 9 -9 0 -11 3 -5 8 6 4 17 16 25 26 14 18 13 19 -5 12 -14
-5 -17 -4 -9 4 13 13 57 22 49 10 -3 -4 0 -10 6 -12 8 -3 5 -10 -6 -22 -12
-11 -14 -21 -8 -27 11 -11 28 33 24 64 -3 21 36 18 50 -4 5 -9 9 -9 9 -2 0 6
-7 18 -15 27 -17 17 -20 30 -5 21 6 -3 10 -4 10 0 0 3 -10 9 -22 14 l-22 8 22
5 c12 4 22 2 22 -3 0 -5 11 -7 24 -3 16 4 25 1 29 -10 4 -9 2 -16 -3 -16 -6 0
-10 5 -10 11 0 6 -5 9 -12 7 -14 -5 -19 -36 -7 -44 5 -3 9 -2 8 3 -4 22 3 24
26 9 15 -10 25 -12 25 -6 0 6 4 8 10 5 5 -3 7 0 4 8 -3 8 -1 18 5 22 18 11 12
22 -14 27 -13 3 -22 2 -20 -3 3 -4 -4 -5 -16 -2 -16 4 -17 8 -7 14 10 7 10 9
-2 9 -9 0 -11 3 -5 8 6 4 17 16 25 26 14 18 13 19 -5 12 -14 -5 -17 -4 -9 4
13 13 57 22 49 10 -3 -4 0 -10 6 -12 8 -3 5 -10 -6 -22 -12 -11 -14 -21 -8
-27 11 -11 28 33 24 64 -3 21 36 18 50 -4 5 -9 9 -9 9 -2 0 6 -7 18 -15 27
-17 17 -20 30 -5 21 6 -3 10 -4 10 0 0 3 -10 9 -22 14 l-22 8 22 5 c12 4 22 2
22 -3 0 -5 11 -7 24 -3 16 4 25 1 29 -10 4 -9 2 -16 -3 -16 -6 0 -10 5 -10 11
0 6 -5 9 -12 7 -14 -5 -19 -36 -7 -44 5 -3 9 -2 8 3 -4 22 3 24 26 9 15 -10
25 -12 25 -6 0 6 4 8 10 5 5 -3 7 0 4 8 -3 8 -1 18 5 22 18 11 12 22 -14 27
-13 3 -22 2 -20 -3 3 -4 -4 -5 -16 -2 -16 4 -17 8 -7 14 10 7 10 9 -2 9 -9 0
-11 3 -5 8 6 4 17 16 25 26 14 18 13 19 -5 12 -14 -5 -17 -4 -9 4 13 13 57 22
49 10 -3 -4 0 -10 6 -12 8 -3 5 -10 -6 -22 -12 -11 -14 -21 -8 -27 11 -11 28
33 24 64 -3 21 36 18 50 -4 5 -9 9 -9 9 -2 0 6 -7 18 -15 27 -17 17 -20 30 -5
21 6 -3 10 -4 10 0 0 3 -10 9 -22 14 l-22 8 22 5 c12 4 22 2 22 -3 0 -5 11 -7
24 -3 16 4 25 1 29 -10 4 -9 2 -16 -3 -16 -6 0 -10 5 -10 11 0 6 -5 9 -12 7
-14 -5 -19 -36 -7 -44 5 -3 9 -2 8 3 -4 22 3 24 26 9 15 -10 25 -12 25 -6 0 6
4 8 10 5 5 -3 7 0 4 8 -3 8 -1 18 5 22 18 11 12 22 -14 27 -13 3 -22 2 -20 -3
3 -4 -4 -5 -16 -2 -16 4 -17 8 -7 14 10 7 10 9 -2 9 -9 0 -11 3 -5 8 6 4 17
16 25 26 14 18 13 19 -5 12 -14 -5 -17 -4 -9 4 13 13 57 22 49 10 -3 -4 0 -10
6 -12 8 -3 5 -10 -6 -22 -12 -11 -14 -21 -8 -27 11 -11 28 33 24 64 -3 21 36
18 50 -4 5 -9 9 -9 9 -2 0 6 -7 18 -15 27 -17 17 -20 30 -5 21 6 -3 10 -4 10
0 0 3 -10 9 -22 14 l-22 8 22 5 c12 4 22 2 22 -3 0 -5 11 -7 24 -3 16 4 25 1
29 -10 4 -9 2 -16 -3 -16 -6 0 -10 5 -10 11 0 6 -5 9 -12 7 -14 -5 -19 -36 -7
-44 5 -3 9 -2 8 3 -4 22 3 24 26 9 15 -10 25 -12 25 -6 0 6 4 8 10 5 5 -3 7 0
4 8 -3 8 -1 18 5 22 18 11 12 22 -14 27 -13 3 -22 2 -20 -3 3 -4 -4 -5 -16 -2
-16 4 -17 8 -7 14 10 7 10 9 -2 9 -9 0 -11 3 -5 8 6 4 17 16 25 26 14 18 13
19 -5 12 -14 -5 -17 -4 -9 4 13 13 57 22 49 10 -3 -4 0 -10 6 -12 8 -3 5 -10
-6 -22 -12 -11 -14 -21 -8 -27 11 -11 28 33 24 64 -3 21 36 18 50 -4 5 -9 9
-9 9 -2 0 6 -7 18 -15 27 -17 17 -20 30 -5 21 6 -3 10 -4 10 0 0 3 -10 9 -22
14 l-22 8 22 5 c12 4 22 2 22 -3 0 -5 11 -7 24 -3 16 4 25 1 29 -10 4 -9 2
-16 -3 -16 -6 0 -10 5 -10 11 0 6 -5 9 -12 7 -14 -5 -19 -36 -7 -44 5 -3 9 -2
8 3 -4 22 3 24 26 9 15 -10 25 -12 25 -6 0 6 4 8 10 5 5 -3 7 0 4 8 -3 8 -1
18 5 22 18 11 12 22 -14 27 -13 3 -22 2 -20 -3 3 -4 -4 -5 -16 -2 -16 4 -17 8
-7 14 10 7 10 9 -2 9 -9 0 -11 3 -5 8 6 4 17 16 25 26 14 18 13 19 -5 12 -14
-5 -17 -4 -9 4 13 13 57 22 49 10 -3 -4 0 -10 6 -12 8 -3 5 -10 -6 -22 -12
-11 -14 -21 -8 -27 11 -11 28 33 24 64 -3 21 36 18 50 -4 5 -9 9 -9 9 -2 0 6
-7 18 -15 27 -17 17 -20 30 -5 21 6 -3 10 -4 10 0 0 3 -10 9 -22 14 l-22 8 22
5 c12 4 22 2 22 -3 0 -5 11 -7 24 -3 16 4 25 1 29 -10 4 -9 2 -16 -3 -16 -6 0
-10 5 -10 11 0 6 -5 9 -12 7 -14 -5 -19 -36 -7 -44 5 -3 9 -2 8 3 -4 22 3 24
26 9 15 -10 25 -12 25 -6 0 6 4 8 10 5 5 -3 7 0 4 8 -3 8 -1 18 5 22 18 11 12
22 -14 27 -13 3 -22 2 -20 -3 3 -4 -4 -5 -16 -2 -16 4 -17 8 -7 14 10 7 10 9
-2 9 -9 0 -11 3 -5 8 6 4 17 16 25 26 14 18 13 19 -5 12 -14 -5 -17 -4 -9 4
13 13 57 22 49 10 -3 -4 0 -10 6 -12 8 -3 5 -10 -6 -22 -12 -11 -14 -21 -8
-27 11 -11 28 33 24 64 -3 21 36 18 50 -4 5 -9 9 -9 9 -2 0 6 -7 18 -15 27
-17 17 -20 30 -5 21 6 -3 10 -4 10 0 0 3 -10 9 -22 14 l-22 8 22 5 c12 4 22 2
22 -3 0 -5 11 -7 24 -3 16 4 25 1 29 -10 4 -9 2 -16 -3 -16 -6 0 -10 5 -10 11
0 6 -5 9 -12 7 -14 -5 -19 -36 -7 -44 5 -3 9 -2 8 3 -4 22 3 24 26 9 15 -10
25 -12 25 -6 0 6 4 8 10 5 5 -3 7 0 4 8 -3 8 -1 18 5 22 18 11 12 22 -14 27
-13 3 -22 2 -20 -3 3 -4 -4 -5 -16 -2 -16 4 -17 8 -7 14 10 7 10 9 -2 9 -9 0
-11 3 -5 8 6 4 17 16 25 26 14 18 13 19 -5 12 -14 -5 -17 -4 -9 4 13 13 57 22
49 10 -3 -4 0 -10 6 -12 8 -3 5 -10 -6 -22 -12 -11 -14 -21 -8 -27 11 -11 28
33 24 64 -3 21 36 18 50 -4 5 -9 9 -9 9 -2 0 6 -7 18 -15 27 -17 17 -20 30 -5
21 6 -3 10 -4 10 0 0 3 -10 9 -22 14 l-22 8 22 5 c12 4 22 2 22 -3 0 -5 11 -7
24 -3 16 4 25 1 29 -10 4 -9 2 -16 -3 -16 -6 0 -10 5 -10 11 0 6 -5 9 -12 7
-14 -5 -19 -36 -7 -44 5 -3 9 -2 8 3 -4 22 3 24 26 9 15 -10 25 -12 25 -6 0 6
4 8 10 5 5 -3 7 0 4 8 -3 8 -1 18 5 22 18 11 12 22 -14 27 -13 3 -22 2 -20 -3
3 -4 -4 -5 -16 -2 -16 4 -17 8 -7 14 10 7 10 9 -2 9 -9 0 -11 3 -5 8 6 4 17
16 25 26 14 18 13 19 -5 12 -14 -5 -17 -4 -9 4 13 13 57 22 49 10 -3 -4 0 -10
6 -12 8 -3 5 -10 -6 -22 -12 -11 -14 -21 -8 -27 11 -11 28 33 24 64 -3 21 36
18 50 -4 5 -9 9 -9 9 -2 0 6 -7 18 -15 27 -18 17 -20 30 -3 20 7 -4 8 -3 4 4
-4 7 -15 12 -24 13 -14 0 -13 2 3 8 11 5 22 4 26 0 3 -5 19 -5 37 0 19 6 32 6
32 1 0 -5 8 -6 17 -3 16 6 16 5 0 -17 -9 -14 -17 -29 -17 -35 0 -5 9 4 20 20
25 38 25 45 -1 45 -11 0 -18 4 -15 8 2 4 1 14 -3 21 -6 9 -11 10 -15 2 -4 -6
-2 -11 4 -11 6 0 8 -4 5 -10 -3 -5 -14 -10 -23 -10 -15 0 -15 2 -2 10 13 9 13
10 0 10 -9 0 -11 3 -5 8 6 4 17 16 25 26 14 18 13 19 -5 12 -14 -5 -17 -4 -9
4 13 13 57 22 49 10 -3 -4 0 -10 6 -12 8 -3 5 -10 -6 -22 -12 -11 -14 -21 -8
-27 12 -12 28 33 24 64 -3 22 28 20 45 -2z m-123 -27 c3 -4 -1 -13 -9 -21 -8
-8 -11 -19 -8 -25 4 -7 2 -8 -4 -4 -8 5 -9 13 -2 25 5 10 6 21 3 25 -3 3 -2 6
4 6 5 0 12 -3 16 -6z m-266 -19 c0 -8 -4 -12 -9 -9 -5 3 -6 10 -3 15 9 13 12
11 12 -6z m133 -10 c0 -2 -9 -3 -19 -2 -11 0 -18 5 -15 9 4 6 34 0 34 -7z
m-380 -9 c0 -3 -4 -8 -10 -11 -5 -3 -10 -1 -10 4 0 6 5 11 10 11 6 0 10 -2 10
-4z m419 -10 c9 -11 9 -16 -1 -22 -7 -4 -10 -4 -6 1 4 4 3 14 -3 22 -6 7 -9
13 -6 13 2 0 10 -6 16 -14z m-16 -51 c-7 -21 -12 -19 -10 4 0 11 5 18 9 15 4
-3 5 -11 1 -19z m42 5 c3 -6 -1 -7 -9 -4 -18 7 -21 14 -7 14 6 0 13 -4 16 -10z
m-483 -7 c-6 -2 -9 -10 -6 -15 4 -7 2 -8 -5 -4 -13 9 -5 26 12 25 9 0 8 -2 -1
-6z m83 -2 c3 -5 2 -12 -3 -15 -5 -3 -9 1 -9 9 0 17 3 19 12 6z m160 0 c3 -5
2 -12 -3 -15 -5 -3 -9 1 -9 9 0 17 3 19 12 6z m170 -11 c3 -6 -1 -7 -9 -4 -18
7 -21 14 -7 14 6 0 13 -4 16 -10z m-22 -46 c3 -4 -1 -13 -9 -21 -8 -8 -11 -19
-8 -25 4 -7 2 -8 -4 -4 -8 5 -9 13 -2 25 5 10 6 21 3 25 -3 3 -2 6 4 6 5 0 12
-3 16 -6z m-266 -19 c0 -8 -4 -12 -9 -9 -5 3 -6 10 -3 15 9 13 12 11 12 -6z
m133 -10 c0 -2 -9 -3 -19 -2 -11 0 -18 5 -15 9 4 6 34 0 34 -7z m-380 -9 c0
-3 -4 -8 -10 -11 -5 -3 -10 -1 -10 4 0 6 5 11 10 11 6 0 10 -2 10 -4z m419
-10 c9 -11 9 -16 -1 -22 -7 -4 -10 -4 -6 1 4 4 3 14 -3 22 -6 7 -9 13 -6 13 2
0 10 -6 16 -14z m149 -36 c-7 -11 -16 -20 -20 -20 -11 0 -5 23 7 32 19 14 25
8 13 -12z m-165 -15 c-7 -21 -12 -19 -10 4 0 11 5 18 9 15 4 -3 5 -11 1 -19z
m42 5 c3 -6 -1 -7 -9 -4 -18 7 -21 14 -7 14 6 0 13 -4 16 -10z m-483 -7 c-6
-2 -9 -10 -6 -15 4 -7 2 -8 -5 -4 -13 9 -5 26 12 25 9 0 8 -2 -1 -6z m83 -2
c3 -5 2 -12 -3 -15 -5 -3 -9 1 -9 9 0 17 3 19 12 6z m160 0 c3 -5 2 -12 -3
-15 -5 -3 -9 1 -9 9 0 17 3 19 12 6z m170 -11 c3 -6 -1 -7 -9 -4 -18 7 -21 14
-7 14 6 0 13 -4 16 -10z m-22 -46 c3 -4 -1 -13 -9 -21 -8 -8 -11 -19 -8 -25 4
-7 2 -8 -4 -4 -8 5 -9 13 -2 25 5 10 6 21 3 25 -3 3 -2 6 4 6 5 0 12 -3 16 -6z
m-266 -19 c0 -8 -4 -12 -9 -9 -5 3 -6 10 -3 15 9 13 12 11 12 -6z m133 -10 c0
-2 -9 -3 -19 -2 -11 0 -18 5 -15 9 4 6 34 0 34 -7z m-380 -9 c0 -3 -4 -8 -10
-11 -5 -3 -10 -1 -10 4 0 6 5 11 10 11 6 0 10 -2 10 -4z m419 -10 c9 -11 9
-16 -1 -22 -7 -4 -10 -4 -6 1 4 4 3 14 -3 22 -6 7 -9 13 -6 13 2 0 10 -6 16
-14z m149 -36 c-7 -11 -16 -20 -20 -20 -11 0 -5 23 7 32 19 14 25 8 13 -12z
m-165 -15 c-7 -21 -12 -19 -10 4 0 11 5 18 9 15 4 -3 5 -11 1 -19z m42 5 c3
-6 -1 -7 -9 -4 -18 7 -21 14 -7 14 6 0 13 -4 16 -10z m-483 -7 c-6 -2 -9 -10
-6 -15 4 -7 2 -8 -5 -4 -13 9 -5 26 12 25 9 0 8 -2 -1 -6z m83 -2 c3 -5 2 -12
-3 -15 -5 -3 -9 1 -9 9 0 17 3 19 12 6z m160 0 c3 -5 2 -12 -3 -15 -5 -3 -9 1
-9 9 0 17 3 19 12 6z m170 -11 c3 -6 -1 -7 -9 -4 -18 7 -21 14 -7 14 6 0 13
-4 16 -10z m-22 -46 c3 -4 -1 -13 -9 -21 -8 -8 -11 -19 -8 -25 4 -7 2 -8 -4
-4 -8 5 -9 13 -2 25 5 10 6 21 3 25 -3 3 -2 6 4 6 5 0 12 -3 16 -6z m-266 -19
c0 -8 -4 -12 -9 -9 -5 3 -6 10 -3 15 9 13 12 11 12 -6z m133 -10 c0 -2 -9 -3
-19 -2 -11 0 -18 5 -15 9 4 6 34 0 34 -7z m-380 -9 c0 -3 -4 -8 -10 -11 -5 -3
-10 -1 -10 4 0 6 5 11 10 11 6 0 10 -2 10 -4z m419 -10 c9 -11 9 -16 -1 -22
-7 -4 -10 -4 -6 1 4 4 3 14 -3 22 -6 7 -9 13 -6 13 2 0 10 -6 16 -14z m149
-36 c-7 -11 -16 -20 -20 -20 -11 0 -5 23 7 32 19 14 25 8 13 -12z m-165 -15
c-7 -21 -12 -19 -10 4 0 11 5 18 9 15 4 -3 5 -11 1 -19z m42 5 c3 -6 -1 -7 -9
-4 -18 7 -21 14 -7 14 6 0 13 -4 16 -10z m-483 -7 c-6 -2 -9 -10 -6 -15 4 -7
2 -8 -5 -4 -13 9 -5 26 12 25 9 0 8 -2 -1 -6z m83 -2 c3 -5 2 -12 -3 -15 -5
-3 -9 1 -9 9 0 17 3 19 12 6z m160 0 c3 -5 2 -12 -3 -15 -5 -3 -9 1 -9 9 0 17
3 19 12 6z m170 -11 c3 -6 -1 -7 -9 -4 -18 7 -21 14 -7 14 6 0 13 -4 16 -10z
m-22 -46 c3 -4 -1 -13 -9 -21 -8 -8 -11 -19 -8 -25 4 -7 2 -8 -4 -4 -8 5 -9
13 -2 25 5 10 6 21 3 25 -3 3 -2 6 4 6 5 0 12 -3 16 -6z m-266 -19 c0 -8 -4
-12 -9 -9 -5 3 -6 10 -3 15 9 13 12 11 12 -6z m133 -10 c0 -2 -9 -3 -19 -2
-11 0 -18 5 -15 9 4 6 34 0 34 -7z m-380 -9 c0 -3 -4 -8 -10 -11 -5 -3 -10 -1
-10 4 0 6 5 11 10 11 6 0 10 -2 10 -4z m419 -10 c9 -11 9 -16 -1 -22 -7 -4
-10 -4 -6 1 4 4 3 14 -3 22 -6 7 -9 13 -6 13 2 0 10 -6 16 -14z m149 -36 c-7
-11 -16 -20 -20 -20 -11 0 -5 23 7 32 19 14 25 8 13 -12z m-165 -15 c-7 -21
-12 -19 -10 4 0 11 5 18 9 15 4 -3 5 -11 1 -19z m42 5 c3 -6 -1 -7 -9 -4 -18
7 -21 14 -7 14 6 0 13 -4 16 -10z m-483 -7 c-6 -2 -9 -10 -6 -15 4 -7 2 -8 -5
-4 -13 9 -5 26 12 25 9 0 8 -2 -1 -6z m83 -2 c3 -5 2 -12 -3 -15 -5 -3 -9 1
-9 9 0 17 3 19 12 6z m160 0 c3 -5 2 -12 -3 -15 -5 -3 -9 1 -9 9 0 17 3 19 12
6z m170 -11 c3 -6 -1 -7 -9 -4 -18 7 -21 14 -7 14 6 0 13 -4 16 -10z m-22 -46
c3 -4 -1 -13 -9 -21 -8 -8 -11 -19 -8 -25 4 -7 2 -8 -4 -4 -8 5 -9 13 -2 25 5
10 6 21 3 25 -3 3 -2 6 4 6 5 0 12 -3 16 -6z m-266 -19 c0 -8 -4 -12 -9 -9 -5
3 -6 10 -3 15 9 13 12 11 12 -6z m133 -10 c0 -2 -9 -3 -19 -2 -11 0 -18 5 -15
9 4 6 34 0 34 -7z m-380 -9 c0 -3 -4 -8 -10 -11 -5 -3 -10 -1 -10 4 0 6 5 11
10 11 6 0 10 -2 10 -4z m419 -10 c9 -11 9 -16 -1 -22 -7 -4 -10 -4 -6 1 4 4 3
14 -3 22 -6 7 -9 13 -6 13 2 0 10 -6 16 -14z m149 -36 c-7 -11 -16 -20 -20
-20 -11 0 -5 23 7 32 19 14 25 8 13 -12z m-165 -15 c-7 -21 -12 -19 -10 4 0
11 5 18 9 15 4 -3 5 -11 1 -19z m42 5 c3 -6 -1 -7 -9 -4 -18 7 -21 14 -7 14 6
0 13 -4 16 -10z m-483 -7 c-6 -2 -9 -10 -6 -15 4 -7 2 -8 -5 -4 -13 9 -5 26
12 25 9 0 8 -2 -1 -6z m83 -2 c3 -5 2 -12 -3 -15 -5 -3 -9 1 -9 9 0 17 3 19
12 6z m160 0 c3 -5 2 -12 -3 -15 -5 -3 -9 1 -9 9 0 17 3 19 12 6z m170 -11 c3
-6 -1 -7 -9 -4 -18 7 -21 14 -7 14 6 0 13 -4 16 -10z m-22 -46 c3 -4 -1 -13
-9 -21 -8 -8 -11 -19 -8 -25 4 -7 2 -8 -4 -4 -8 5 -9 13 -2 25 5 10 6 21 3 25
-3 3 -2 6 4 6 5 0 12 -3 16 -6z m-266 -19 c0 -8 -4 -12 -9 -9 -5 3 -6 10 -3
15 9 13 12 11 12 -6z m133 -10 c0 -2 -9 -3 -19 -2 -11 0 -18 5 -15 9 4 6 34 0
34 -7z m-380 -9 c0 -3 -4 -8 -10 -11 -5 -3 -10 -1 -10 4 0 6 5 11 10 11 6 0
10 -2 10 -4z m419 -10 c9 -11 9 -16 -1 -22 -7 -4 -10 -4 -6 1 4 4 3 14 -3 22
-6 7 -9 13 -6 13 2 0 10 -6 16 -14z m149 -36 c-7 -11 -16 -20 -20 -20 -11 0
-5 23 7 32 19 14 25 8 13 -12z m-165 -15 c-7 -21 -12 -19 -10 4 0 11 5 18 9
15 4 -3 5 -11 1 -19z m42 5 c3 -6 -1 -7 -9 -4 -18 7 -21 14 -7 14 6 0 13 -4
16 -10z m-483 -7 c-6 -2 -9 -10 -6 -15 4 -7 2 -8 -5 -4 -13 9 -5 26 12 25 9 0
8 -2 -1 -6z m83 -2 c3 -5 2 -12 -3 -15 -5 -3 -9 1 -9 9 0 17 3 19 12 6z m160
0 c3 -5 2 -12 -3 -15 -5 -3 -9 1 -9 9 0 17 3 19 12 6z m170 -11 c3 -6 -1 -7
-9 -4 -18 7 -21 14 -7 14 6 0 13 -4 16 -10z m-22 -46 c3 -4 -1 -13 -9 -21 -8
-8 -11 -19 -8 -25 4 -7 2 -8 -4 -4 -8 5 -9 13 -2 25 5 10 6 21 3 25 -3 3 -2 6
4 6 5 0 12 -3 16 -6z m-266 -19 c0 -8 -4 -12 -9 -9 -5 3 -6 10 -3 15 9 13 12
11 12 -6z m133 -10 c0 -2 -9 -3 -19 -2 -11 0 -18 5 -15 9 4 6 34 0 34 -7z
m-380 -9 c0 -3 -4 -8 -10 -11 -5 -3 -10 -1 -10 4 0 6 5 11 10 11 6 0 10 -2 10
-4z m419 -10 c9 -11 9 -16 -1 -22 -7 -4 -10 -4 -6 1 4 4 3 14 -3 22 -6 7 -9
13 -6 13 2 0 10 -6 16 -14z m149 -36 c-7 -11 -16 -20 -20 -20 -11 0 -5 23 7
32 19 14 25 8 13 -12z m-165 -15 c-7 -21 -12 -19 -10 4 0 11 5 18 9 15 4 -3 5
-11 1 -19z m42 5 c3 -6 -1 -7 -9 -4 -18 7 -21 14 -7 14 6 0 13 -4 16 -10z
m-483 -7 c-6 -2 -9 -10 -6 -15 4 -7 2 -8 -5 -4 -13 9 -5 26 12 25 9 0 8 -2 -1
-6z m83 -2 c3 -5 2 -12 -3 -15 -5 -3 -9 1 -9 9 0 17 3 19 12 6z m160 0 c3 -5
2 -12 -3 -15 -5 -3 -9 1 -9 9 0 17 3 19 12 6z m170 -11 c3 -6 -1 -7 -9 -4 -18
7 -21 14 -7 14 6 0 13 -4 16 -10z m-22 -46 c3 -4 -1 -13 -9 -21 -8 -8 -11 -19
-8 -25 4 -7 2 -8 -4 -4 -8 5 -9 13 -2 25 5 10 6 21 3 25 -3 3 -2 6 4 6 5 0 12
-3 16 -6z m-266 -19 c0 -8 -4 -12 -9 -9 -5 3 -6 10 -3 15 9 13 12 11 12 -6z
m133 -10 c0 -2 -9 -3 -19 -2 -11 0 -18 5 -15 9 4 6 34 0 34 -7z m-380 -9 c0
-3 -4 -8 -10 -11 -5 -3 -10 -1 -10 4 0 6 5 11 10 11 6 0 10 -2 10 -4z m419
-10 c9 -11 9 -16 -1 -22 -7 -4 -10 -4 -6 1 4 4 3 14 -3 22 -6 7 -9 13 -6 13 2
0 10 -6 16 -14z m149 -36 c-7 -11 -16 -20 -20 -20 -11 0 -5 23 7 32 19 14 25
8 13 -12z m-165 -15 c-7 -21 -12 -19 -10 4 0 11 5 18 9 15 4 -3 5 -11 1 -19z
m42 5 c3 -6 -1 -7 -9 -4 -18 7 -21 14 -7 14 6 0 13 -4 16 -10z m-483 -7 c-6
-2 -9 -10 -6 -15 4 -7 2 -8 -5 -4 -13 9 -5 26 12 25 9 0 8 -2 -1 -6z m83 -2
c3 -5 2 -12 -3 -15 -5 -3 -9 1 -9 9 0 17 3 19 12 6z m160 0 c3 -5 2 -12 -3
-15 -5 -3 -9 1 -9 9 0 17 3 19 12 6z m170 -11 c3 -6 -1 -7 -9 -4 -18 7 -21 14
-7 14 6 0 13 -4 16 -10z m-22 -46 c3 -4 -1 -13 -9 -21 -8 -8 -11 -19 -8 -25 4
-7 2 -8 -4 -4 -8 5 -9 13 -2 25 5 10 6 21 3 25 -3 3 -2 6 4 6 5 0 12 -3 16 -6z
m-266 -19 c0 -8 -4 -12 -9 -9 -5 3 -6 10 -3 15 9 13 12 11 12 -6z m133 -10 c0
-2 -9 -3 -19 -2 -11 0 -18 5 -15 9 4 6 34 0 34 -7z m-380 -9 c0 -3 -4 -8 -10
-11 -5 -3 -10 -1 -10 4 0 6 5 11 10 11 6 0 10 -2 10 -4z m419 -10 c9 -11 9
-16 -1 -22 -7 -4 -10 -4 -6 1 4 4 3 14 -3 22 -6 7 -9 13 -6 13 2 0 10 -6 16
-14z m149 -36 c-7 -11 -16 -20 -20 -20 -11 0 -5 23 7 32 19 14 25 8 13 -12z
m-165 -15 c-7 -21 -12 -19 -10 4 0 11 5 18 9 15 4 -3 5 -11 1 -19z m42 5 c3
-6 -1 -7 -9 -4 -18 7 -21 14 -7 14 6 0 13 -4 16 -10z m-483 -7 c-6 -2 -9 -10
-6 -15 4 -7 2 -8 -5 -4 -13 9 -5 26 12 25 9 0 8 -2 -1 -6z m83 -2 c3 -5 2 -12
-3 -15 -5 -3 -9 1 -9 9 0 17 3 19 12 6z m160 0 c3 -5 2 -12 -3 -15 -5 -3 -9 1
-9 9 0 17 3 19 12 6z m170 -11 c3 -6 -1 -7 -9 -4 -18 7 -21 14 -7 14 6 0 13
-4 16 -10z m-22 -46 c3 -4 -1 -13 -9 -21 -8 -8 -11 -19 -8 -25 4 -7 2 -8 -4
-4 -8 5 -9 13 -2 25 5 10 6 21 3 25 -3 3 -2 6 4 6 5 0 12 -3 16 -6z m-266 -19
c0 -8 -4 -12 -9 -9 -5 3 -6 10 -3 15 9 13 12 11 12 -6z m133 -10 c0 -2 -9 -3
-19 -2 -11 0 -18 5 -15 9 4 6 34 0 34 -7z m-380 -9 c0 -3 -4 -8 -10 -11 -5 -3
-10 -1 -10 4 0 6 5 11 10 11 6 0 10 -2 10 -4z m419 -10 c9 -11 9 -16 -1 -22
-7 -4 -10 -4 -6 1 4 4 3 14 -3 22 -6 7 -9 13 -6 13 2 0 10 -6 16 -14z m149
-36 c-7 -11 -16 -20 -20 -20 -11 0 -5 23 7 32 19 14 25 8 13 -12z m-165 -15
c-7 -21 -12 -19 -10 4 0 11 5 18 9 15 4 -3 5 -11 1 -19z m42 5 c3 -6 -1 -7 -9
-4 -18 7 -21 14 -7 14 6 0 13 -4 16 -10z m-483 -7 c-6 -2 -9 -10 -6 -15 4 -7
2 -8 -5 -4 -13 9 -5 26 12 25 9 0 8 -2 -1 -6z m83 -2 c3 -5 2 -12 -3 -15 -5
-3 -9 1 -9 9 0 17 3 19 12 6z m160 0 c3 -5 2 -12 -3 -15 -5 -3 -9 1 -9 9 0 17
3 19 12 6z m170 -11 c3 -6 -1 -7 -9 -4 -18 7 -21 14 -7 14 6 0 13 -4 16 -10z
m-22 -46 c3 -4 -1 -13 -9 -21 -8 -8 -11 -19 -8 -25 4 -7 2 -8 -4 -4 -8 5 -9
13 -2 25 5 10 6 21 3 25 -3 3 -2 6 4 6 5 0 12 -3 16 -6z m-266 -19 c0 -8 -4
-12 -9 -9 -5 3 -6 10 -3 15 9 13 12 11 12 -6z m133 -10 c0 -2 -9 -3 -19 -2
-11 0 -18 5 -15 9 4 6 34 0 34 -7z m-380 -9 c0 -3 -4 -8 -10 -11 -5 -3 -10 -1
-10 4 0 6 5 11 10 11 6 0 10 -2 10 -4z m419 -10 c9 -11 9 -16 -1 -22 -7 -4
-10 -4 -6 1 4 4 3 14 -3 22 -6 7 -9 13 -6 13 2 0 10 -6 16 -14z m149 -36 c-7
-11 -16 -20 -20 -20 -11 0 -5 23 7 32 19 14 25 8 13 -12z m-165 -15 c-7 -21
-12 -19 -10 4 0 11 5 18 9 15 4 -3 5 -11 1 -19z m42 5 c3 -6 -1 -7 -9 -4 -18
7 -21 14 -7 14 6 0 13 -4 16 -10z m-483 -7 c-6 -2 -9 -10 -6 -15 4 -7 2 -8 -5
-4 -13 9 -5 26 12 25 9 0 8 -2 -1 -6z m83 -2 c3 -5 2 -12 -3 -15 -5 -3 -9 1
-9 9 0 17 3 19 12 6z m160 0 c3 -5 2 -12 -3 -15 -5 -3 -9 1 -9 9 0 17 3 19 12
6z m170 -11 c3 -6 -1 -7 -9 -4 -18 7 -21 14 -7 14 6 0 13 -4 16 -10z m-22 -46
c3 -4 -1 -13 -9 -21 -8 -8 -11 -19 -8 -25 4 -7 2 -8 -4 -4 -8 5 -9 13 -2 25 5
10 6 21 3 25 -3 3 -2 6 4 6 5 0 12 -3 16 -6z m-266 -19 c0 -8 -4 -12 -9 -9 -5
3 -6 10 -3 15 9 13 12 11 12 -6z m133 -10 c0 -2 -9 -3 -19 -2 -11 0 -18 5 -15
9 4 6 34 0 34 -7z m-380 -9 c0 -3 -4 -8 -10 -11 -5 -3 -10 -1 -10 4 0 6 5 11
10 11 6 0 10 -2 10 -4z m419 -10 c9 -11 9 -16 -1 -22 -7 -4 -10 -4 -6 1 4 4 3
14 -3 22 -6 7 -9 13 -6 13 2 0 10 -6 16 -14z m149 -36 c-7 -11 -16 -20 -20
-20 -11 0 -5 23 7 32 19 14 25 8 13 -12z m-165 -15 c-7 -21 -12 -19 -10 4 0
11 5 18 9 15 4 -3 5 -11 1 -19z m42 5 c3 -6 -1 -7 -9 -4 -18 7 -21 14 -7 14 6
0 13 -4 16 -10z m-483 -7 c-6 -2 -9 -10 -6 -15 4 -7 2 -8 -5 -4 -13 9 -5 26
12 25 9 0 8 -2 -1 -6z m83 -2 c3 -5 2 -12 -3 -15 -5 -3 -9 1 -9 9 0 17 3 19
12 6z m160 0 c3 -5 2 -12 -3 -15 -5 -3 -9 1 -9 9 0 17 3 19 12 6z m170 -11 c3
-6 -1 -7 -9 -4 -18 7 -21 14 -7 14 6 0 13 -4 16 -10z m-22 -46 c3 -4 -1 -13
-9 -21 -8 -8 -11 -19 -8 -25 4 -7 2 -8 -4 -4 -8 5 -9 13 -2 25 5 10 6 21 3 25
-3 3 -2 6 4 6 5 0 12 -3 16 -6z m-266 -19 c0 -8 -4 -12 -9 -9 -5 3 -6 10 -3
15 9 13 12 11 12 -6z m133 -10 c0 -2 -9 -3 -19 -2 -11 0 -18 5 -15 9 4 6 34 0
34 -7z m-380 -9 c0 -3 -4 -8 -10 -11 -5 -3 -10 -1 -10 4 0 6 5 11 10 11 6 0
10 -2 10 -4z m419 -10 c9 -11 9 -16 -1 -22 -7 -4 -10 -4 -6 1 4 4 3 14 -3 22
-6 7 -9 13 -6 13 2 0 10 -6 16 -14z m149 -36 c-7 -11 -16 -20 -20 -20 -11 0
-5 23 7 32 19 14 25 8 13 -12z m-165 -15 c-7 -21 -12 -19 -10 4 0 11 5 18 9
15 4 -3 5 -11 1 -19z m42 5 c3 -6 -1 -7 -9 -4 -18 7 -21 14 -7 14 6 0 13 -4
16 -10z m-483 -7 c-6 -2 -9 -10 -6 -15 4 -7 2 -8 -5 -4 -13 9 -5 26 12 25 9 0
8 -2 -1 -6z m83 -2 c3 -5 2 -12 -3 -15 -5 -3 -9 1 -9 9 0 17 3 19 12 6z m160
0 c3 -5 2 -12 -3 -15 -5 -3 -9 1 -9 9 0 17 3 19 12 6z m170 -11 c3 -6 -1 -7
-9 -4 -18 7 -21 14 -7 14 6 0 13 -4 16 -10z m-22 -46 c3 -4 -1 -13 -9 -21 -8
-8 -11 -19 -8 -25 4 -7 2 -8 -4 -4 -8 5 -9 13 -2 25 5 10 6 21 3 25 -3 3 -2 6
4 6 5 0 12 -3 16 -6z m-266 -19 c0 -8 -4 -12 -9 -9 -5 3 -6 10 -3 15 9 13 12
11 12 -6z m133 -10 c0 -2 -9 -3 -19 -2 -11 0 -18 5 -15 9 4 6 34 0 34 -7z
m-380 -9 c0 -3 -4 -8 -10 -11 -5 -3 -10 -1 -10 4 0 6 5 11 10 11 6 0 10 -2 10
-4z m419 -10 c9 -11 9 -16 -1 -22 -7 -4 -10 -4 -6 1 4 4 3 14 -3 22 -6 7 -9
13 -6 13 2 0 10 -6 16 -14z m102 -16 c17 5 29 5 29 0 0 -5 8 -6 18 -3 15 6 15
5 3 -10 -11 -14 -17 -15 -30 -5 -9 7 -13 8 -9 4 9 -11 -10 -36 -26 -36 -7 0
-6 4 2 9 11 6 9 9 -6 13 -15 4 -19 1 -16 -16 2 -11 2 -15 -2 -8 -3 6 -13 12
-22 12 -9 0 -24 5 -32 11 -12 8 -10 9 7 4 12 -3 24 -1 28 5 3 5 -2 10 -12 11
-16 0 -16 1 2 9 11 4 24 4 29 0 4 -4 21 -4 37 0z m-118 -35 c-7 -21 -12 -19
-10 4 0 11 5 18 9 15 4 -3 5 -11 1 -19z m-441 -2 c-6 -2 -9 -10 -6 -15 4 -7 2
-8 -5 -4 -13 9 -5 26 12 25 9 0 8 -2 -1 -6z m83 -2 c3 -5 2 -12 -3 -15 -5 -3
-9 1 -9 9 0 17 3 19 12 6z m160 0 c3 -5 2 -12 -3 -15 -5 -3 -9 1 -9 9 0 17 3
19 12 6z m170 -11 c3 -6 -1 -7 -9 -4 -18 7 -21 14 -7 14 6 0 13 -4 16 -10z
m72 -15 c0 -8 -4 -15 -9 -15 -4 0 -8 7 -8 15 0 8 4 15 8 15 5 0 9 -7 9 -15z
m-30 -12 c0 -7 -3 -11 -5 -8 -3 3 -15 -3 -26 -12 -20 -17 -20 -17 -7 0 8 10 9
17 3 17 -6 0 -15 -6 -19 -14 -7 -12 -11 -12 -33 0 -23 14 -23 14 -3 9 13 -4
32 0 43 8 25 17 47 18 47 0z m-330 -38 c0 -8 -4 -12 -9 -9 -5 3 -6 10 -3 15 9
13 12 11 12 -6z m117 -3 c3 -5 -1 -9 -9 -9 -8 0 -12 4 -9 9 3 4 7 8 9 8 2 0 6
-4 9 -8z m53 -12 c1 -11 -2 -20 -7 -20 -6 0 -7 17 -1 38 3 8 7 -1 8 -18z
m-417 -4 c0 -3 -4 -8 -10 -11 -5 -3 -10 -1 -10 4 0 6 5 11 10 11 6 0 10 -2 10
-4z m-38 -63 c-6 -2 -9 -10 -6 -15 4 -7 2 -8 -5 -4 -13 9 -5 26 12 25 9 0 8
-2 -1 -6z m83 -2 c3 -5 2 -12 -3 -15 -5 -3 -9 1 -9 9 0 17 3 19 12 6z m135 3
c0 -8 -19 -13 -24 -6 -3 5 1 9 9 9 8 0 15 -2 15 -3z m-340 -98 c0 -3 -4 -8
-10 -11 -5 -3 -10 -1 -10 4 0 6 5 11 10 11 6 0 10 -2 10 -4z"/>
<path d="M3875 6495 c-48 -47 -31 -89 58 -138 71 -40 154 -123 186 -185 37
-73 88 -91 135 -47 34 31 33 54 -6 129 -42 79 -146 183 -230 229 -76 43 -110
46 -143 12z"/>
<path d="M3362 6164 c-39 -17 -72 -67 -72 -111 0 -44 49 -99 95 -107 138 -26
189 166 59 220 -39 16 -40 16 -82 -2z"/>
<path d="M6287 6487 c-87 -49 -181 -138 -227 -217 -46 -79 -50 -111 -15 -145
47 -47 99 -26 141 57 34 66 105 135 183 177 66 35 86 63 75 107 -8 30 -40 54
-74 54 -14 0 -51 -15 -83 -33z"/>
<path d="M6843 6160 c-82 -37 -96 -129 -28 -188 29 -26 40 -30 82 -27 38 2 53
9 75 34 54 61 30 155 -48 187 -40 17 -30 17 -81 -6z"/>
<path d="M9437 3129 c7 -7 15 -10 18 -7 3 3 -2 9 -12 12 -14 6 -15 5 -6 -5z"/>
<path d="M9383 3108 c-2 -16 1 -18 10 -9 7 7 8 14 1 21 -6 6 -10 2 -11 -12z"/>
<path d="M9430 3088 c-12 -22 -12 -22 6 -6 10 10 15 20 12 24 -4 3 -12 -5 -18
-18z"/>
<path d="M9329 3028 c-6 -21 -5 -39 2 -44 5 -3 8 0 7 7 -2 7 5 13 14 14 10 0
18 3 18 8 0 20 -1 21 -10 7 -6 -10 -10 -11 -10 -2 0 10 -18 18 -21 10z"/>
<path d="M9277 2965 c3 -8 9 -12 14 -9 12 7 11 11 -5 17 -10 4 -13 1 -9 -8z"/>
<path d="M9227 2962 c2 -3 -4 -15 -12 -28 -13 -20 -12 -23 1 -28 9 -3 12 -2 9
5 -4 5 -1 17 6 25 8 10 9 18 2 23 -5 5 -8 6 -6 3z"/>
<path d="M9297 2937 c-3 -8 1 -14 8 -14 7 0 11 6 8 14 -3 7 -6 13 -8 13 -2 0
-5 -6 -8 -13z"/>
<path d="M9266 2923 c-6 -14 -5 -15 5 -6 7 7 10 15 7 18 -3 3 -9 -2 -12 -12z"/>
<path d="M9275 2899 c-4 -6 -5 -12 -2 -15 2 -3 7 2 10 11 7 17 1 20 -8 4z"/>
<path d="M9280 2863 c0 -4 5 -15 10 -23 8 -13 10 -13 10 2 0 9 -4 20 -10 23
-5 3 -10 3 -10 -2z"/>
<path d="M9117 2805 c3 -8 9 -12 14 -9 12 7 11 11 -5 17 -10 4 -13 1 -9 -8z"/>
<path d="M9067 2802 c2 -3 -4 -15 -12 -28 -13 -20 -12 -23 1 -28 9 -3 12 -2 9
5 -4 5 -1 17 6 25 8 10 9 18 2 23 -5 5 -8 6 -6 3z"/>
<path d="M9137 2777 c-3 -8 1 -14 8 -14 7 0 11 6 8 14 -3 7 -6 13 -8 13 -2 0
-5 -6 -8 -13z"/>
<path d="M9106 2763 c-6 -14 -5 -15 5 -6 7 7 10 15 7 18 -3 3 -9 -2 -12 -12z"/>
<path d="M9115 2739 c-4 -6 -5 -12 -2 -15 2 -3 7 2 10 11 7 17 1 20 -8 4z"/>
<path d="M8957 2645 c3 -8 9 -12 14 -9 12 7 11 11 -5 17 -10 4 -13 1 -9 -8z"/>
<path d="M8907 2642 c2 -3 -4 -15 -12 -28 -13 -20 -12 -23 1 -28 9 -3 12 -2 9
5 -4 5 -1 17 6 25 8 10 9 18 2 23 -5 5 -8 6 -6 3z"/>
<path d="M8977 2617 c-3 -8 1 -14 8 -14 7 0 11 6 8 14 -3 7 -6 13 -8 13 -2 0
-5 -6 -8 -13z"/>
<path d="M8946 2603 c-6 -14 -5 -15 5 -6 7 7 10 15 7 18 -3 3 -9 -2 -12 -12z"/>
<path d="M9163 2608 c-11 -19 -13 -39 -1 -32 5 3 7 9 4 12 -3 3 -1 11 5 19 6
7 9 13 6 13 -3 0 -9 -6 -14 -12z"/>
<path d="M8955 2579 c-4 -6 -5 -12 -2 -15 2 -3 7 2 10 11 7 17 1 20 -8 4z"/>
<path d="M9053 2505 c0 -8 4 -12 9 -9 5 3 6 10 3 15 -9 13 -12 11 -12 -6z"/>
<path d="M8797 2485 c3 -8 9 -12 14 -9 12 7 11 11 -5 17 -10 4 -13 1 -9 -8z"/>
<path d="M8747 2482 c2 -3 -4 -15 -12 -28 -13 -20 -12 -23 1 -28 9 -3 12 -2 9
5 -4 5 -1 17 6 25 8 10 9 18 2 23 -5 5 -8 6 -6 3z"/>
<path d="M8817 2457 c-3 -8 1 -14 8 -14 7 0 11 6 8 14 -3 7 -6 13 -8 13 -2 0
-5 -6 -8 -13z"/>
<path d="M8786 2443 c-6 -14 -5 -15 5 -6 7 7 10 15 7 18 -3 3 -9 -2 -12 -12z"/>
<path d="M8795 2419 c-4 -6 -5 -12 -2 -15 2 -3 7 2 10 11 7 17 1 20 -8 4z"/>
<path d="M8970 2364 c0 -1 8 -8 17 -15 9 -8 14 -9 10 -2 -4 6 -1 13 5 16 7 3
3 4 -9 4 -13 -1 -23 -2 -23 -3z"/>
<path d="M8893 2345 c0 -8 4 -12 9 -9 5 3 6 10 3 15 -9 13 -12 11 -12 -6z"/>
<path d="M8637 2325 c3 -8 9 -12 14 -9 12 7 11 11 -5 17 -10 4 -13 1 -9 -8z"/>
<path d="M8587 2322 c2 -3 -4 -15 -12 -28 -13 -20 -12 -23 1 -28 9 -3 12 -2 9
5 -4 5 -1 17 6 25 8 10 9 18 2 23 -5 5 -8 6 -6 3z"/>
<path d="M8657 2297 c-3 -8 1 -14 8 -14 7 0 11 6 8 14 -3 7 -6 13 -8 13 -2 0
-5 -6 -8 -13z"/>
<path d="M8626 2283 c-6 -14 -5 -15 5 -6 7 7 10 15 7 18 -3 3 -9 -2 -12 -12z"/>
<path d="M8635 2259 c-4 -6 -5 -12 -2 -15 2 -3 7 2 10 11 7 17 1 20 -8 4z"/>
<path d="M8823 2205 c0 -8 4 -12 9 -9 5 3 6 10 3 15 -9 13 -12 11 -12 -6z"/>
<path d="M8733 2185 c0 -8 4 -12 9 -9 5 3 6 10 3 15 -9 13 -12 11 -12 -6z"/>
<path d="M8477 2165 c3 -8 9 -12 14 -9 12 7 11 11 -5 17 -10 4 -13 1 -9 -8z"/>
<path d="M8427 2162 c2 -3 -4 -15 -12 -28 -13 -20 -12 -23 1 -28 9 -3 12 -2 9
5 -4 5 -1 17 6 25 8 10 9 18 2 23 -5 5 -8 6 -6 3z"/>
<path d="M8497 2137 c-3 -8 1 -14 8 -14 7 0 11 6 8 14 -3 7 -6 13 -8 13 -2 0
-5 -6 -8 -13z"/>
<path d="M8466 2123 c-6 -14 -5 -15 5 -6 7 7 10 15 7 18 -3 3 -9 -2 -12 -12z"/>
<path d="M8475 2099 c-4 -6 -5 -12 -2 -15 2 -3 7 2 10 11 7 17 1 20 -8 4z"/>
<path d="M8753 2055 c0 -8 4 -12 9 -9 5 3 6 10 3 15 -9 13 -12 11 -12 -6z"/>
<path d="M8663 2045 c0 -8 4 -12 9 -9 5 3 6 10 3 15 -9 13 -12 11 -12 -6z"/>
<path d="M8573 2025 c0 -8 4 -12 9 -9 5 3 6 10 3 15 -9 13 -12 11 -12 -6z"/>
<path d="M8317 2005 c3 -8 9 -12 14 -9 12 7 11 11 -5 17 -10 4 -13 1 -9 -8z"/>
<path d="M8267 2002 c2 -3 -4 -15 -12 -28 -13 -20 -12 -23 1 -28 9 -3 12 -2 9
5 -4 5 -1 17 6 25 8 10 9 18 2 23 -5 5 -8 6 -6 3z"/>
<path d="M8337 1977 c-3 -8 1 -14 8 -14 7 0 11 6 8 14 -3 7 -6 13 -8 13 -2 0
-5 -6 -8 -13z"/>
<path d="M8306 1963 c-6 -14 -5 -15 5 -6 7 7 10 15 7 18 -3 3 -9 -2 -12 -12z"/>
<path d="M8315 1939 c-4 -6 -5 -12 -2 -15 2 -3 7 2 10 11 7 17 1 20 -8 4z"/>
<path d="M8583 1896 c-3 -6 -2 -8 2 -3 5 4 18 -1 29 -10 15 -14 18 -14 8 -2
-6 9 -10 18 -7 21 3 2 -2 5 -10 5 -9 0 -19 -5 -22 -11z"/>
<path d="M8503 1885 c0 -8 4 -12 9 -9 5 3 6 10 3 15 -9 13 -12 11 -12 -6z"/>
<path d="M8413 1865 c0 -8 4 -12 9 -9 5 3 6 10 3 15 -9 13 -12 11 -12 -6z"/>
<path d="M8157 1845 c3 -8 9 -12 14 -9 12 7 11 11 -5 17 -10 4 -13 1 -9 -8z"/>
<path d="M8107 1842 c2 -3 -4 -15 -12 -28 -13 -20 -12 -23 1 -28 9 -3 12 -2 9
5 -4 5 -1 17 6 25 8 10 9 18 2 23 -5 5 -8 6 -6 3z"/>
<path d="M8177 1817 c-3 -8 1 -14 8 -14 7 0 11 6 8 14 -3 7 -6 13 -8 13 -2 0
-5 -6 -8 -13z"/>
<path d="M8146 1803 c-6 -14 -5 -15 5 -6 7 7 10 15 7 18 -3 3 -9 -2 -12 -12z"/>
<path d="M8513 1807 c0 -8 6 -14 14 -14 9 0 10 4 2 14 -6 7 -12 13 -14 13 -1
0 -2 -6 -2 -13z"/>
<path d="M8155 1779 c-4 -6 -5 -12 -2 -15 2 -3 7 2 10 11 7 17 1 20 -8 4z"/>
<path d="M8423 1745 c0 -8 4 -12 9 -9 5 3 6 10 3 15 -9 13 -12 11 -12 -6z"/>
<path d="M8343 1725 c0 -8 4 -12 9 -9 5 3 6 10 3 15 -9 13 -12 11 -12 -6z"/>
<path d="M8253 1705 c0 -8 4 -12 9 -9 5 3 6 10 3 15 -9 13 -12 11 -12 -6z"/>
<path d="M7997 1685 c3 -8 9 -12 14 -9 12 7 11 11 -5 17 -10 4 -13 1 -9 -8z"/>
<path d="M7947 1682 c2 -3 -4 -15 -12 -28 -13 -20 -12 -23 1 -28 9 -3 12 -2 9
5 -4 5 -1 17 6 25 8 10 9 18 2 23 -5 5 -8 6 -6 3z"/>
<path d="M8017 1657 c-3 -8 1 -14 8 -14 7 0 11 6 8 14 -3 7 -6 13 -8 13 -2 0
-5 -6 -8 -13z"/>
<path d="M7986 1643 c-6 -14 -5 -15 5 -6 7 7 10 15 7 18 -3 3 -9 -2 -12 -12z"/>
<path d="M7995 1619 c-4 -6 -5 -12 -2 -15 2 -3 7 2 10 11 7 17 1 20 -8 4z"/>
<path d="M8183 1565 c0 -8 4 -12 9 -9 5 3 6 10 3 15 -9 13 -12 11 -12 -6z"/>
<path d="M8093 1545 c0 -8 4 -12 9 -9 5 3 6 10 3 15 -9 13 -12 11 -12 -6z"/>
<path d="M7837 1525 c3 -8 9 -12 14 -9 12 7 11 11 -5 17 -10 4 -13 1 -9 -8z"/>
<path d="M7787 1522 c2 -3 -4 -15 -12 -28 -13 -20 -12 -23 1 -28 9 -3 12 -2 9
5 -4 5 -1 17 6 25 8 10 9 18 2 23 -5 5 -8 6 -6 3z"/>
<path d="M7857 1497 c-3 -8 1 -14 8 -14 7 0 11 6 8 14 -3 7 -6 13 -8 13 -2 0
-5 -6 -8 -13z"/>
<path d="M7826 1483 c-6 -14 -5 -15 5 -6 7 7 10 15 7 18 -3 3 -9 -2 -12 -12z"/>
<path d="M7835 1459 c-4 -6 -5 -12 -2 -15 2 -3 7 2 10 11 7 17 1 20 -8 4z"/>
<path d="M8023 1405 c0 -8 4 -12 9 -9 5 3 6 10 3 15 -9 13 -12 11 -12 -6z"/>
<path d="M7933 1385 c0 -8 4 -12 9 -9 5 3 6 10 3 15 -9 13 -12 11 -12 -6z"/>
<path d="M7677 1365 c3 -8 9 -12 14 -9 12 7 11 11 -5 17 -10 4 -13 1 -9 -8z"/>
<path d="M7627 1362 c2 -3 -4 -15 -12 -28 -13 -20 -12 -23 1 -28 9 -3 12 -2 9
5 -4 5 -1 17 6 25 8 10 9 18 2 23 -5 5 -8 6 -6 3z"/>
<path d="M7697 1337 c-3 -8 1 -14 8 -14 7 0 11 6 8 14 -3 7 -6 13 -8 13 -2 0
-5 -6 -8 -13z"/>
<path d="M7666 1323 c-6 -14 -5 -15 5 -6 7 7 10 15 7 18 -3 3 -9 -2 -12 -12z"/>
<path d="M7675 1299 c-4 -6 -5 -12 -2 -15 2 -3 7 2 10 11 7 17 1 20 -8 4z"/>
<path d="M7899 1253 c-13 -16 -12 -17 4 -4 16 13 21 21 13 21 -2 0 -10 -8 -17
-17z"/>
<path d="M7863 1245 c0 -8 4 -12 9 -9 5 3 6 10 3 15 -9 13 -12 11 -12 -6z"/>
<path d="M7773 1225 c0 -8 4 -12 9 -9 5 3 6 10 3 15 -9 13 -12 11 -12 -6z"/>
<path d="M7517 1205 c3 -8 9 -12 14 -9 12 7 11 11 -5 17 -10 4 -13 1 -9 -8z"/>
<path d="M7467 1202 c2 -3 -4 -15 -12 -28 -13 -20 -12 -23 1 -28 9 -3 12 -2 9
5 -4 5 -1 17 6 25 8 10 9 18 2 23 -5 5 -8 6 -6 3z"/>
<path d="M7537 1177 c-3 -8 1 -14 8 -14 7 0 11 6 8 14 -3 7 -6 13 -8 13 -2 0
-5 -6 -8 -13z"/>
<path d="M7786 1182 c-3 -5 1 -9 9 -9 8 0 12 4 9 9 -3 4 -7 8 -9 8 -2 0 -6 -4
-9 -8z"/>
<path d="M7506 1163 c-6 -14 -5 -15 5 -6 7 7 10 15 7 18 -3 3 -9 -2 -12 -12z"/>
<path d="M7515 1139 c-4 -6 -5 -12 -2 -15 2 -3 7 2 10 11 7 17 1 20 -8 4z"/>
<path d="M7357 1045 c3 -8 9 -12 14 -9 12 7 11 11 -5 17 -10 4 -13 1 -9 -8z"/>
<path d="M7307 1042 c2 -3 -4 -15 -12 -28 -13 -20 -12 -23 1 -28 9 -3 12 -2 9
5 -4 5 -1 17 6 25 8 10 9 18 2 23 -5 5 -8 6 -6 3z"/>
<path d="M7377 1017 c-3 -8 1 -14 8 -14 7 0 11 6 8 14 -3 7 -6 13 -8 13 -2 0
-5 -6 -8 -13z"/>
<path d="M7346 1003 c-6 -14 -5 -15 5 -6 7 7 10 15 7 18 -3 3 -9 -2 -12 -12z"/>
<path d="M7355 979 c-4 -6 -5 -12 -2 -15 2 -3 7 2 10 11 7 17 1 20 -8 4z"/>
<path d="M7143 868 c-2 -16 1 -18 10 -9 7 7 8 14 1 21 -6 6 -10 2 -11 -12z"/>
<path d="M7190 850 c-6 -11 -8 -20 -6 -20 3 0 10 9 16 20 6 11 8 20 6 20 -3 0
-10 -9 -16 -20z"/>
</g>
</svg>
